<svg xmlns="http://www.w3.org/2000/svg">
	<symbol id="tdesign--heart" viewBox="0 0 24 24">
		<path fill="currentColor" d="M12.001 3.818a6.228 6.228 0 0 1 8.51 9.087l-5.224 5.225h-.001L12 21.415l-7.28-7.279l-1.23-1.232A6.228 6.228 0 0 1 12 3.818m3.285 11.485l3.811-3.812a4.228 4.228 0 1 0-5.98-5.98L12 6.627L10.883 5.51a4.228 4.228 0 1 0-5.98 5.98l1.232 1.232L12 18.587l3.285-3.285" />
	</symbol>
	<symbol id="tdesign--heart-filled" viewBox="0 0 24 24">
		<path fill="currentColor" d="M12.002 4.818a6.228 6.228 0 0 1 8.51 9.087l-5.225 5.225L12 22.415l-7.28-7.279l-1.23-1.232a6.228 6.228 0 0 1 8.511-9.086" />
	</symbol>
	<symbol id="tdesign--chat-bubble" viewBox="0 0 24 24">
		<path fill="currentColor" d="M12 3a9 9 0 0 0-9 9c0 2.397.935 4.573 2.463 6.186l.504.532L4.7 21H12a9 9 0 1 0 0-18M1 12C1 5.925 5.925 1 12 1s11 4.925 11 11s-4.925 11-11 11H1.3l2.22-3.994A10.96 10.96 0 0 1 1 12" />
	</symbol>
	<symbol id="tdesign--chat-bubble-filled" viewBox="0 0 24 24">
		<path fill="currentColor" d="M1 12C1 5.925 5.925 1 12 1s11 4.925 11 11s-4.925 11-11 11H1.3l2.22-3.994A10.96 10.96 0 0 1 1 12" />
	</symbol>
	<symbol id="tdesign--star" viewBox="0 0 24 24">
		<path fill="currentColor" d="m12 .63l2.903 8.35l8.839.181l-7.045 5.341l2.56 8.462L12 17.914l-7.256 5.05l2.56-8.462L.259 9.161l8.839-.18zm0 6.092l-1.47 4.23l-4.478.091l3.569 2.706l-1.297 4.287L12 15.478l3.676 2.558l-1.296-4.287l3.568-2.706l-4.477-.09z" />
	</symbol>
	<symbol id="tdesign--star-filled" viewBox="0 0 24 24">
		<path fill="currentColor" d="m12.001.63l2.903 8.35l8.839.181l-7.045 5.341l2.56 8.462L12 17.914l-7.256 5.05l2.56-8.462L.26 9.161l8.839-.18z" />
	</symbol>
</svg>